<svg xmlns="http://www.w3.org/2000/svg" viewBox="0 0 311.66 567.28"><defs><style>.cls-1{fill:#c90d50;stroke:#910c52;}.cls-1,.cls-2,.cls-3,.cls-4{stroke-miterlimit:10;}.cls-2{fill:#27bbed;}.cls-2,.cls-3,.cls-4{stroke:#36489e;}.cls-3{fill:none;}.cls-4{fill:#bc0a8a;}</style></defs><title>LR</title><g id="Robot"><g id="Head"><g id="Layer_13" data-name="Layer 13"><path class="cls-1" d="M197.15,157.57,279,170.93,232.25,248l-28.6-13.5s43,.41,22.35-17.83-28.85-59.1-28.85-59.1" transform="translate(-70.12 -80.12)"/></g><g id="Layer_7" data-name="Layer 7"><path class="cls-2" d="M226,200.89s2.33,9.11,0,15.78,17.67,0,17.67,0,2-15.67,0-18.25c-11.42,10.24-17.67,2.47-17.67,2.47" transform="translate(-70.12 -80.12)"/><path class="cls-2" d="M151.33,352.33s-7.08,23.92-10.66,35.34c2.08,8.83,31.33-27.34,31.33-27.34Z" transform="translate(-70.12 -80.12)"/><path class="cls-2" d="M300.75,367.75s17.75,44.25,29.5,47c4-14.25-2.77-45.37-2-53.75S300.75,367.75,300.75,367.75Z" transform="translate(-70.12 -80.12)"/><path class="cls-2" d="M188.25,582.25S200.5,644.5,207,646.75s2.25-66.25,2.25-66.25Z" transform="translate(-70.12 -80.12)"/><path class="cls-2" d="M251.75,580.5s8.75,62.5,15.75,66.25,7-66.25,7-66.25Z" transform="translate(-70.12 -80.12)"/></g><path class="cls-2" d="M198.5,134c-4.5,11.67-2,21.33.5,31.67,3.17,19,23.33,34,32.5,38.33,12.5.33,31.39-21.17,34.89-36.5,4.1-14.74,2.28-41.83-3.89-51s-22.5-14.83-39-10.5C210.33,108.67,203,122.33,198.5,134Z" transform="translate(-70.12 -80.12)"/><g id="Layer_6" data-name="Layer 6"><path class="cls-3" d="M234.22,103.35C229,123,225.91,198.66,231.5,204c37.09-11.79,37.09-52.15,37.09-52.15S223.26,164,196,150.19C194,119.29,221.67,102.77,234.22,103.35Z" transform="translate(-70.12 -80.12)"/></g><g id="Eye"><ellipse class="cls-4" cx="158.88" cy="73.14" rx="12.67" ry="17.67"/><path class="cls-4" d="M234.22,203.75" transform="translate(-70.12 -80.12)"/></g></g></g><g id="Cloak"><g id="Layer_10" data-name="Layer 10"><path class="cls-1" d="M273.5,231.5S285.25,374.5,293,377s65-6.31,73-24.67C349,335,287.5,228.5,287.5,228.5Z" transform="translate(-70.12 -80.12)"/></g><g id="Layer_11" data-name="Layer 11"><path class="cls-1" d="M203,224.33c-11,149.34-123.67,267.84-132.33,312,136.33,110.42,296,24,310,20.67C290,484.33,274.5,303,273.5,231.5,241.67,219.63,217.75,199.33,203,224.33Z" transform="translate(-70.12 -80.12)"/></g><g id="Layer_12" data-name="Layer 12"><path class="cls-1" d="M188.15,228.5s-83,111.5-79,119.5,66,22.69,66,22.69l28.5-136.19Z" transform="translate(-70.12 -80.12)"/></g><path class="cls-1" d="M121,194.5c0,57,52,108.5,65,112,7-14,39.81-72.5,39.81-72.5s-16.14,81-9.48,89C335.5,316.5,342.5,228.58,342.5,213.5c-42.5-19-107.32,6.13-107.32,6.13S161.94,177.25,121,194.5Z" transform="translate(-70.12 -80.12)"/><path class="cls-1" d="M232.25,106.67c17.42,2.66,36.34,10,34.14,60.83-10.06,28.83-24.72,44.59-24.72,52.13s41.5-22.42,56-46c12.81-15.85,12.81-15.85,19.33-26.34C317,135.59,280.33,96,267,87s-31-7-45.67-3-57,47-59.33,62,64,70.67,64,70.67-5.78-8.08-12.21-19.2c-6.87-11.87-14.5-27.22-16.64-39.9-4.15-24.57,35.1-50.9,35.1-50.9" transform="translate(-70.12 -80.12)"/></g></svg>